HIERARCHY
ROOT Hips
{
  OFFSET -4.35178 90.3298 111.633
  CHANNELS 6 Xposition Yposition Zposition Zrotation Xrotation Yrotation
  JOINT LeftUpLeg
  {
    OFFSET 0.103456 1.85784 10.5485
    CHANNELS 6 Xposition Yposition Zposition Zrotation Xrotation Yrotation
    JOINT LeftLeg
    {
      OFFSET 43.5 -4.2e-05 0
      CHANNELS 6 Xposition Yposition Zposition Zrotation Xrotation Yrotation
      JOINT LeftFoot
      {
        OFFSET 42.3722 1.9e-05 0
        CHANNELS 6 Xposition Yposition Zposition Zrotation Xrotation Yrotation
        JOINT LeftToe
        {
          OFFSET 17.3 0 0
          CHANNELS 6 Xposition Yposition Zposition Zrotation Xrotation Yrotation
          End Site
          {
            OFFSET 0 0 0
          }
        }
      }
    }
  }
  JOINT RightUpLeg
  {
    OFFSET 0.103456 1.85782 -10.5485
    CHANNELS 6 Xposition Yposition Zposition Zrotation Xrotation Yrotation
    JOINT RightLeg
    {
      OFFSET 43.5 -2.7e-05 0
      CHANNELS 6 Xposition Yposition Zposition Zrotation Xrotation Yrotation
      JOINT RightFoot
      {
        OFFSET 42.3723 0 0
        CHANNELS 6 Xposition Yposition Zposition Zrotation Xrotation Yrotation
        JOINT RightToe
        {
          OFFSET 17.3 0 1.7e-05
          CHANNELS 6 Xposition Yposition Zposition Zrotation Xrotation Yrotation
          End Site
          {
            OFFSET 0 0 0
          }
        }
      }
    }
  }
  JOINT Spine
  {
    OFFSET 6.90197 -2.60373 0
    CHANNELS 6 Xposition Yposition Zposition Zrotation Xrotation Yrotation
    JOINT Spine1
    {
      OFFSET 12.5881 0 0
      CHANNELS 6 Xposition Yposition Zposition Zrotation Xrotation Yrotation
      JOINT Spine2
      {
        OFFSET 12.3432 -1.8e-05 0
        CHANNELS 6 Xposition Yposition Zposition Zrotation Xrotation Yrotation
        JOINT Neck
        {
          OFFSET 25.8329 2.3e-05 0
          CHANNELS 6 Xposition Yposition Zposition Zrotation Xrotation Yrotation
          JOINT Head
          {
            OFFSET 11.7666 0 0
            CHANNELS 6 Xposition Yposition Zposition Zrotation Xrotation Yrotation
            End Site
            {
              OFFSET 0 0 0
            }
          }
        }
        JOINT LeftShoulder
        {
          OFFSET 19.7459 -1.48035 6.0001
          CHANNELS 6 Xposition Yposition Zposition Zrotation Xrotation Yrotation
          JOINT LeftArm
          {
            OFFSET 11.2841 1.8e-05 -2e-05
            CHANNELS 6 Xposition Yposition Zposition Zrotation Xrotation Yrotation
            JOINT LeftForeArm
            {
              OFFSET 33 -1.3e-05 1.9e-05
              CHANNELS 6 Xposition Yposition Zposition Zrotation Xrotation Yrotation
              JOINT LeftHand
              {
                OFFSET 25.2 3.2e-05 1.1e-05
                CHANNELS 6 Xposition Yposition Zposition Zrotation Xrotation Yrotation
                End Site
                {
                  OFFSET 0 0 0
                }
              }
            }
          }
        }
        JOINT RightShoulder
        {
          OFFSET 19.7461 -1.48036 -6.00008
          CHANNELS 6 Xposition Yposition Zposition Zrotation Xrotation Yrotation
          JOINT RightArm
          {
            OFFSET 11.2841 0 0
            CHANNELS 6 Xposition Yposition Zposition Zrotation Xrotation Yrotation
            JOINT RightForeArm
            {
              OFFSET 33.0001 1.6e-05 0
              CHANNELS 6 Xposition Yposition Zposition Zrotation Xrotation Yrotation
              JOINT RightHand
              {
                OFFSET 25.1998 0.000123 0.000432
                CHANNELS 6 Xposition Yposition Zposition Zrotation Xrotation Yrotation
                End Site
                {
                  OFFSET 0 0 0
                }
              }
            }
          }
        }
      }
    }
  }
}
MOTION
Frames:	6
Frame Time:	0.0333333
-16.7038 91.741 -4.29721 27.762 83.8641 64.8151 0.103456 1.85784 10.5485 3.35822 10.4769 -175.402 43.5 -4.2e-05 1e-05 -17.5574 -7.51473 -2.54013 42.3722 1.9e-05 0 74.4524 0.704298 -0.777625 17.3 8.88178e-16 3e-06 21.4546 -1e-06 0.003093 0.103456 1.85782 -10.5485 8.73403 0.682542 173.516 43.5 -2.7e-05 4e-06 -6.41135 10.8265 2.05843 42.3723 0 1e-05 80.3283 13.3617 -11.2023 17.3 -6e-06 1.7e-05 21.4546 -1.9e-05 -0.003116 6.90197 -2.60373 -3e-06 6.82808 0.0725975 0.323001 12.5881 1e-05 8e-06 3.63748 0.239483 0.657173 12.3432 -1.8e-05 -5e-06 3.31277 0.330452 0.650184 25.8329 2.3e-05 7e-06 4.71675 0.529169 -5.07437 11.7666 -8e-06 -6e-06 -17.0674 -5.03096 11.1686 19.7459 -1.48035 6.0001 173.798 -10.5616 -100.406 11.2841 1.8e-05 -2e-05 2.85982 -26.5413 32.4749 33 -1.3e-05 1.9e-05 -16.67 9.26304 -17.3199 25.2 3.2e-05 1.1e-05 -0.404411 30.2947 2.81048 19.7461 -1.48036 -6.00008 -178.272 1.2127 78.5637 11.2841 0 -1e-06 5.12193 -9.47119 4.35421 33.0001 1.6e-05 -1e-06 -28.6297 5.715 17.3659 25.1998 0.000123 0.000432 17.1853 -14.1375 6.45934 
-16.7161 91.7513 -4.28208 26.7979 83.8932 65.758 0.103456 1.85784 10.5485 3.05915 10.19 -175.413 43.5 -4.2e-05 1e-05 -18.3301 -7.61006 -2.4945 42.3722 1.9e-05 -8.88178e-16 74.9842 0.534514 -0.422598 17.3 -4.44089e-16 3e-06 21.4546 -1e-06 0.003093 0.103456 1.85782 -10.5485 8.20346 0.723321 173.63 43.5 -2.7e-05 4e-06 -7.658 10.8842 1.92273 42.3723 0 1e-05 81.0213 13.6014 -11.2277 17.3 -6e-06 1.7e-05 21.4546 -1.9e-05 -0.003116 6.90197 -2.60373 -3e-06 6.86303 0.0725974 0.338924 12.5881 1e-05 8e-06 3.70721 0.239481 0.689087 12.3432 -1.8e-05 -5e-06 3.38231 0.335009 0.682073 25.8329 2.3e-05 7e-06 4.68252 0.400022 -5.01183 11.7666 -8e-06 -6e-06 -17.1569 -5.15725 11.058 19.7459 -1.48035 6.0001 173.826 -10.511 -100.396 11.2841 1.8e-05 -2e-05 2.97862 -26.5712 32.6379 33 -1.3e-05 1.9e-05 -16.7276 9.29533 -17.34 25.2 3.2e-05 1.1e-05 -0.437562 30.3101 2.79267 19.7461 -1.48036 -6.00008 -178.228 1.1319 78.6155 11.2841 -3.55271e-15 -1e-06 5.2494 -9.25403 4.16461 33.0001 1.6e-05 -1e-06 -28.6289 5.76637 17.3994 25.1998 0.000123 0.000432 17.2 -14.0859 6.44 
-16.7267 91.7273 -4.21493 25.8283 83.8859 66.7073 0.103456 1.85784 10.5485 2.80319 9.98556 -175.388 43.5 -4.2e-05 1e-05 -19.2182 -7.73902 -2.46925 42.3722 1.9e-05 0 75.7704 0.0977668 -0.141321 17.3 1.33227e-15 3e-06 21.4546 -1e-06 0.003093 0.103456 1.85782 -10.5485 7.75509 0.723293 173.73 43.5 -2.7e-05 4e-06 -8.90634 10.9548 1.79635 42.3723 -8.88178e-16 1e-05 81.9196 14.0101 -11.1635 17.3 -6e-06 1.7e-05 21.4546 -1.9e-05 -0.003116 6.90197 -2.60373 -3e-06 6.90559 0.0744643 0.34954 12.5881 1e-05 8e-06 3.79215 0.245858 0.710078 12.3432 -1.8e-05 -5e-06 3.46706 0.343954 0.702794 25.8329 2.3e-05 7e-06 4.63508 0.310145 -4.96906 11.7666 -8e-06 -6e-06 -17.1978 -5.24371 10.9772 19.7459 -1.48035 6.0001 173.855 -10.4603 -100.333 11.2841 1.8e-05 -2e-05 3.09648 -26.5538 32.7615 33 -1.3e-05 1.9e-05 -16.8345 9.3118 -17.3484 25.2 3.2e-05 1.1e-05 -0.499276 30.3095 2.78241 19.7461 -1.48036 -6.00008 -178.205 1.05034 78.6428 11.2841 0 -1e-06 5.33275 -8.99203 3.90921 33.0001 1.6e-05 -1e-06 -28.526 5.75886 17.4511 25.1998 0.000123 0.000432 17.2128 -14.0665 6.41282 
-16.7374 91.6952 -4.0588 25.7472 83.8422 66.7722 0.103456 1.85784 10.5485 2.70728 9.89144 -175.323 43.5 -4.2e-05 1e-05 -19.8474 -7.81941 -2.48003 42.3722 1.9e-05 0 76.4607 -0.294269 -0.0497699 17.3 1.77636e-15 3e-06 21.4546 -1e-06 0.003093 0.103456 1.85782 -10.5485 7.35249 0.594695 173.803 43.5 -2.7e-05 4e-06 -10.0383 10.9969 1.71541 42.3723 2.66454e-15 1e-05 82.6865 14.2024 -10.9944 17.3 -6e-06 1.7e-05 21.4546 -1.9e-05 -0.003116 6.90197 -2.60373 -3e-06 6.95065 0.0833494 0.356145 12.5881 1e-05 8e-06 3.88189 0.265778 0.722114 12.3432 -1.8e-05 -5e-06 3.55644 0.365936 0.713745 25.8329 2.3e-05 7e-06 4.55183 0.245774 -4.91917 11.7666 -8e-06 -6e-06 -17.0861 -5.31257 10.9321 19.7459 -1.48035 6.0001 173.889 -10.4503 -100.222 11.2841 1.8e-05 -2e-05 3.25643 -26.4318 32.8752 33 -1.3e-05 1.9e-05 -17.0899 9.31592 -17.3106 25.2 3.2e-05 1.1e-05 -0.513609 30.3183 2.77721 19.7461 -1.48036 -6.00008 -178.146 0.970978 78.5825 11.2841 3.55271e-15 -1e-06 5.38517 -8.93864 3.77115 33.0001 1.6e-05 -1e-06 -28.4906 5.78719 17.4544 25.1998 0.000123 0.000432 17.202 -14.0454 6.44273 
-16.7886 91.6608 -3.83283 26.4843 83.7939 66.0256 0.103456 1.85784 10.5485 2.76013 9.78066 -175.267 43.5 -4.2e-05 1e-05 -20.2412 -7.90936 -2.49366 42.3722 1.9e-05 0 77.1097 -0.758039 -0.03216 17.3 1.77636e-15 3e-06 21.4546 -1e-06 0.003093 0.103456 1.85782 -10.5485 6.97499 0.531708 173.876 43.5 -2.7e-05 4e-06 -11.1113 11.0239 1.62683 42.3723 8.88178e-16 1e-05 83.3694 14.2891 -10.8533 17.3 -6e-06 1.7e-05 21.4546 -1.9e-05 -0.003116 6.90197 -2.60373 -3e-06 6.99137 0.111437 0.349476 12.5881 1e-05 8e-06 3.96258 0.32212 0.705026 12.3432 -1.8e-05 -5e-06 3.63638 0.422321 0.693364 25.8329 2.3e-05 7e-06 4.45731 0.19812 -4.87471 11.7666 -8e-06 -6e-06 -16.889 -5.36556 10.8935 19.7459 -1.48035 6.0001 173.97 -10.4385 -100.061 11.2841 1.8e-05 -2e-05 3.58099 -26.2745 33.1357 33 -1.3e-05 1.9e-05 -17.7448 9.31053 -17.2118 25.2 3.2e-05 1.1e-05 -0.477678 30.3973 2.6518 19.7461 -1.48036 -6.00008 -178.136 0.849371 78.5675 11.2841 0 -1e-06 5.43076 -8.56009 3.36542 33.0001 1.6e-05 -1e-06 -28.5529 5.85013 17.5383 25.1998 0.000123 0.000432 17.3316 -13.9873 6.50512 
-16.858 91.6293 -3.52989 27.6666 83.7618 64.8547 0.103456 1.85784 10.5485 2.95701 9.67141 -175.253 43.5 -4.2e-05 1e-05 -20.3507 -8.00372 -2.49686 42.3722 1.9e-05 -8.88178e-16 77.5756 -1.17125 -0.0161386 17.3 -1.11022e-15 3e-06 21.4546 -1e-06 0.003093 0.103456 1.85782 -10.5485 6.62322 0.564788 173.954 43.5 -2.7e-05 4e-06 -12.1491 11.0665 1.53131 42.3723 -8.88178e-16 1e-05 84.0012 14.3563 -10.7696 17.3 -6e-06 1.7e-05 21.4546 -1.9e-05 -0.003116 6.90197 -2.60373 -3e-06 7.03316 0.136138 0.341218 12.5881 1e-05 8e-06 4.04559 0.371481 0.68519 12.3432 -1.8e-05 -5e-06 3.71875 0.471616 0.670674 25.8329 2.3e-05 7e-06 4.30528 0.157679 -4.85181 11.7666 -8e-06 -6e-06 -16.6055 -5.37873 10.8385 19.7459 -1.48035 6.0001 174.208 -10.484 -99.6736 11.2841 1.8e-05 -2e-05 3.72218 -25.767 33.3759 33 -1.3e-05 1.9e-05 -18.9836 9.56675 -16.9468 25.2 3.2e-05 1.1e-05 -0.703425 30.5675 2.62963 19.7461 -1.48036 -6.00008 -178.169 0.762367 78.4728 11.2841 -3.55271e-15 -1e-06 5.40907 -8.25095 2.97592 33.0001 1.6e-05 -1e-06 -28.8268 5.84255 17.6312 25.1998 0.000123 0.000432 17.2032 -13.9375 6.56637 
